# xmcd CD database file
#
# Track frame offsets:
#	150
#	16950
#	32417
#	44266
#	59360
#	71404
#	86624
#	98997
#	117300
#	135575
#	151246
#	170541
#	186378
#	202592
#
# Disc length: 3001 seconds
#
# Revision: 1
# Processed by: cddbd v1.5.2PL0 Copyright (c) Steve Scherf et al.
# Submitted via: CDex 1.51
#
DISCID=b10bb70e
DTITLE=Maruja Muci - Dreaming in Caracas
DYEAR=2005
DGENRE=Jazz
TTITLE0=Keep on dreaming
TTITLE1=I seek your heart
TTITLE2=Caramba
TTITLE3=Tanto
TTITLE4=Fly me to the moon
TTITLE5=Baubles bangles and beads
TTITLE6=Venezuela
TTITLE7=Mala idea
TTITLE8=Love is in the air
TTITLE9=Velas izadas
TTITLE10=I`ll be gone
TTITLE11=Chovendo na roseira
TTITLE12=Venezuela (reprise)
TTITLE13=Tanto (adrian holtz`s remix)
EXTD=YEAR: 2005
EXTT0=
EXTT1=
EXTT2=
EXTT3=
EXTT4=
EXTT5=
EXTT6=
EXTT7=
EXTT8=
EXTT9=
EXTT10=
EXTT11=
EXTT12=
EXTT13=
PLAYORDER=
